<svg id="eom8p9wWGT31" xmlns="http://www.w3.org/2000/svg" xmlns:xlink="http://www.w3.org/1999/xlink" viewBox="0 0 1920 1080" shape-rendering="geometricPrecision" text-rendering="geometricPrecision"><path d="M2263.31885,733.29279c5.4735-2.34579,10.947-4.69157,16.4205-7.03736" fill="none" stroke="#3f5787" stroke-width="3.84"/><path d="M1939.60035,547.97567c-100.66774,0-204.57268-15.25784-304.95222-4.69157-65.04246,6.84657-129.15139,33.46074-192.35447,49.26151-50.87585,12.71896-109.53464,16.5861-161.85925,18.76629-52.15911,2.1733-104.91224,4.28117-157.16768,2.34579-79.98591-2.96244-163.51417-23.22144-243.96177-11.72893-36.71786,5.24541-66.39892,31.75508-96.17724,51.6073-112.36964,74.91309-151.5933,170.19571-171.2424,297.91486-11.03057,71.69872-88.08923,188.13619-56.29887,255.6907c21.60853,45.91813,70.41263,57.75144,114.94353,68.0278c169.3957,39.09132,286.33315,21.58736,459.77411-4.69157c182.05208-27.58365,363.51532-14.57447,546.5682-21.11208c53.50922-1.91104,171.93707-12.6717,204.08341-56.29887c17.33489-23.52592,12.46651-27.57385,23.45786-53.95308c42.85363-102.84872,41.53912-180.41821,49.26151-288.53171c5.97591-83.66265,24.4469-208.2382-30.49522-281.49435" transform="translate(44.569939-68.027802)" fill="#f8f8f8" stroke="#f8f8f8" stroke-width="3.84"/></svg>
