<svg id="eG81yUKrMsg1" xmlns="http://www.w3.org/2000/svg" xmlns:xlink="http://www.w3.org/1999/xlink" viewBox="0 0 1920 1080" shape-rendering="geometricPrecision" text-rendering="geometricPrecision"><path d="M866.16855,-9.38315c80.72005,96.86406,69.93203,183.41289-18.76629,272.11121-31.29024,31.29024-73.9822,55.15162-99.46134,91.95482-22.56434,32.59294-35.67371,73.98889-48.79236,110.72111-5.42848,15.19975-15.8945,28.58737-22.51955,43.16247-23.66436,52.06159-40.27159,105.08424-67.55864,155.76021-73.90446,137.25115-215.60175,222.44185-345.29974,300.26064-99.00286,59.40172-232.50147,50.66898-343.42311,50.66898-13.77653,0-45.99962,6.84893-58.1755,0-10.02353-5.63823-17.11365-15.49531-24.39618-24.39618-79.67637-97.38223-41.28584-286.63193-41.28584-403.47524c0-55.84301.26849-113.14035,3.75326-168.89661c2.79441-44.7106,14.41325-84.5256,28.14944-125.73414c32.59257-97.7777,25.20971-212.87262,103.2146-290.8775c72.55377-72.55377,198.75725-63.80539,292.75413-63.80539c102.22343,0,203.70849.52078,305.89053,5.62989c72.49393,3.6247,145.70749-3.56756,217.68897,7.50652c51.54597,7.93015,96.92818,35.39334,144.50043,54.42224" transform="translate(-4.887055-21.991745)" fill="#f8f8f8" stroke="#f8f8f8" stroke-width="3.84"/></svg>
