<svg id="e1Z53IifmHa1" xmlns="http://www.w3.org/2000/svg" xmlns:xlink="http://www.w3.org/1999/xlink" viewBox="0 0 1920 1080" shape-rendering="geometricPrecision" text-rendering="geometricPrecision"><path d="M1923.17985,569.08775c-25.16226-15.09736-50.31592-15.12093-77.41095-23.45786-38.85815-11.95635-70.45211-31.98086-112.59774-28.14944-15.2605,1.38732-25.40077,11.96586-39.87837,16.4205-56.88382,17.50271-107.93877,56.30138-168.89661,60.99044-52.7311,4.05624-119.112,11.1708-171.2424,0-52.01239-11.14551-101.70916-32.22131-154.82189-37.53258-104.45021-10.44502-261.57072-19.54407-361.25109,7.03736-137.35516,36.62804-199.92554,106.41682-222.8497,243.96177-5.46174,32.77044-17.13881,70.85203,4.69157,100.86881c78.43614,107.84969,223.23614,108.77155,342.4848,117.28931c42.08911,3.00636,95.28615,9.88505,136.0556-2.34579c25.29479-7.58844,49.2452-22.19098,75.06516-28.14944c90.21555-20.81897,191.36467-21.9844,283.84014-28.14944c60.83389-4.05559,134.77289-7.11643,194.70026,2.34579c101.73625,16.06362,200.4799,46.40093,302.60643,60.99044" transform="translate(14.074718-234.105458)" fill="#f8f8f8" stroke="#f8f8f8" stroke-width="3.84"/><path d="M2263.31885,733.29279c5.4735-2.34579,10.947-4.69157,16.4205-7.03736" fill="none" stroke="#3f5787" stroke-width="3.84"/><path d="M-0.3649,123.38836c26.74159,0,50.65028-11.84466,77.41095-14.07472c48.87713-4.0731,104.13819-8.01234,152.47611,2.34579c62.21411,13.33159,128.05961,46.65066,164.20504,100.86881c45.16464,67.74696-17.86133,169.67244-77.41095,201.73762C209.83726,471.6007,70.0934,449.45265,-47.28062,449.45265" transform="translate(-63.33623 466.811468)" fill="#f8f8f8" stroke="#f8f8f8" stroke-width="3.84"/></svg>
