<svg id="eNm9yBnGwda1" xmlns="http://www.w3.org/2000/svg" xmlns:xlink="http://www.w3.org/1999/xlink" viewBox="0 0 300 300" shape-rendering="geometricPrecision" text-rendering="geometricPrecision"><g transform="matrix(1.311624 0 0 1.570792-47.293523-85.166006)"><rect width="158.117647" height="18.352941" rx="0" ry="0" transform="translate(70.941178 86.189697)" stroke-width="0"/><ellipse rx="19.411764" ry="9.175" transform="matrix(.534397 0 0 1 70.941177 95.367638)" stroke-width="0"/><ellipse rx="19.411764" ry="9.175" transform="matrix(.534397 0 0 1 229.058824 95.364697)" stroke-width="0"/><ellipse rx="19.411764" ry="9.175" transform="matrix(.534397 0 0 1 232.588235 149.99853)" stroke-width="0"/><ellipse rx="19.411764" ry="9.175" transform="matrix(.534397 0 0 1 232.588235 203.045819)" stroke-width="0"/><ellipse rx="19.411764" ry="9.175" transform="matrix(.534397 0 0 1 74.470588 203.048759)" stroke-width="0"/><rect width="158.117647" height="18.352941" rx="0" ry="0" transform="translate(74.470589 193.870819)" stroke-width="0"/><ellipse rx="19.411764" ry="9.175" transform="matrix(.534397 0 0 1 74.470588 150.001471)" stroke-width="0"/><rect width="158.117647" height="18.352941" rx="0" ry="0" transform="translate(74.470589 140.823531)" stroke-width="0"/></g></svg>
